<svg width="0" height="0" class="hidden">
  <symbol fill="#000000" version="1.1" xmlns="http://www.w3.org/2000/svg" viewBox="0 0 32 32" id="store">
    <title>store</title>
    <path d="M0 10.016l4-10.016h24l4 10.016q0 1.664-1.184 2.816t-2.816 1.184-2.816-1.184-1.184-2.816q0 1.664-1.184 2.816t-2.816 1.184-2.816-1.184-1.184-2.816q0 1.664-1.184 2.816t-2.816 1.184-2.816-1.184-1.184-2.816q0 1.664-1.184 2.816t-2.816 1.184-2.816-1.184-1.184-2.816zM2.016 30.016h28v1.984h-28v-1.984zM4 28v-12q2.272 0 4-1.536v9.536h16v-9.536q1.728 1.536 4 1.536v12h-24z"></path>
  </symbol>
  <symbol version="1.1" xmlns="http://www.w3.org/2000/svg" xmlns:xlink="http://www.w3.org/1999/xlink" viewBox="0 -1 20 20" id="sunset">
    <title>sunset [#1255]</title>
    <desc>Created with Sketch.</desc>
    <defs></defs>
    <g id="Page-1" stroke="none" stroke-width="1" fill="none" fill-rule="evenodd">
      <g id="Dribbble-Light-Preview" transform="translate(-340.000000, -2560.000000)" fill="#000000">
        <g id="icons" transform="translate(56.000000, 160.000000)">
          <path d="M302.475,2404.252 L301.061,2402.838 L297.525,2406.373 L298.939,2407.788 L302.475,2404.252 Z M293,2405 L295,2405 L295,2400 L293,2400 L293,2405 Z M290.475,2406.373 L286.939,2402.838 L285.525,2404.252 L289.061,2407.788 L290.475,2406.373 Z M299,2415.805 C299,2413.048 296.757,2410.922 294,2410.922 C291.243,2410.922 289,2413.087 289,2415.844 C289,2415.951 289.025,2416 289.032,2416 L298.969,2416 C298.975,2416 299,2415.912 299,2415.805 L299,2415.805 Z M304,2416 L304,2418 L284,2418 L284,2416 L287.016,2416 C287.011,2416 287,2415.91 287,2415.805 C287,2411.939 290.134,2408.922 294,2408.922 C297.866,2408.922 301,2411.978 301,2415.844 C301,2415.949 300.989,2416 300.984,2416 L304,2416 Z M298,2415.996 C297,2415.998 298,2415.991 298,2415.984 L298,2415.996 Z" id="sunset-[#1255]"></path>
        </g>
      </g>
    </g>
  </symbol>
  <symbol fill="#000000" version="1.1" xmlns="http://www.w3.org/2000/svg" viewBox="0 0 32 32" id="wheel">
    <title>alt-cog</title>
    <path d="M0 16q0-0.832 0.576-1.408t1.44-0.576h1.984q0.032 0 0.064 0t0.064 0.032 0.064 0q0.448-2.72 2.080-4.992-0.128-0.064-0.16-0.096l-1.408-1.44q-0.608-0.576-0.608-1.408t0.608-1.408 1.408-0.608 1.408 0.608l1.408 1.408q0.032 0.032 0.096 0.16 2.304-1.632 5.024-2.048 0-0.032-0.032-0.096t0-0.128v-1.984q0-0.832 0.576-1.408t1.408-0.608 1.408 0.608 0.608 1.408v1.984q0 0.032-0.032 0.096t0 0.128q2.72 0.416 4.992 2.048 0.064-0.128 0.096-0.16l1.408-1.408q0.576-0.608 1.408-0.608t1.44 0.608 0.576 1.408-0.576 1.408l-1.408 1.408q-0.064 0.064-0.192 0.128 1.632 2.272 2.080 4.992 0.032 0 0.096 0t0.096-0.032h2.016q0.8 0 1.408 0.576t0.576 1.408-0.576 1.44-1.408 0.576h-2.016q-0.032 0-0.096-0.032t-0.096-0.032q-0.448 2.752-2.080 5.024 0.128 0.064 0.192 0.128l1.408 1.408q0.576 0.576 0.576 1.376t-0.576 1.44-1.44 0.576-1.408-0.576l-1.408-1.408q-0.032-0.064-0.096-0.16-2.272 1.6-4.992 2.048 0 0.032 0 0.096t0.032 0.096v2.016q0 0.832-0.608 1.408t-1.408 0.576-1.408-0.576-0.576-1.408v-2.016q0-0.032 0-0.096t0.032-0.096q-2.72-0.448-5.024-2.048-0.064 0.128-0.096 0.16l-1.408 1.408q-0.576 0.576-1.408 0.576t-1.408-0.576-0.608-1.44 0.608-1.376l1.408-1.408q0.064-0.064 0.16-0.128-1.632-2.272-2.080-5.024 0 0-0.064 0.032t-0.128 0.032h-1.984q-0.832 0-1.44-0.576t-0.576-1.44zM10.016 16q0 2.496 1.728 4.256t4.256 1.76 4.256-1.76 1.76-4.256-1.76-4.224-4.256-1.76-4.256 1.76-1.728 4.224z"></path>
  </symbol>
  <symbol fill="#000000" version="1.1" xmlns="http://www.w3.org/2000/svg" viewBox="0 0 32 32" id="book">
    <title>book</title>
    <path d="M0 23.008v-17.984q0-1.024 0.48-1.888t1.28-1.44q1.024-0.672 2.24-0.672 0.736 0 1.472 0.256l10.016 4q0.064 0.032 0.512 0.32 0.448-0.288 0.512-0.32l10.016-4q0.736-0.256 1.472-0.256 1.248 0 2.24 0.672 0.832 0.576 1.312 1.44t0.448 1.888v17.984q0 1.248-0.672 2.24t-1.856 1.472l-9.984 4q-0.736 0.288-1.472 0.288-1.024 0-2.016-0.576-0.992 0.576-1.984 0.576-0.768 0-1.504-0.288l-9.984-4q-1.152-0.448-1.824-1.472t-0.704-2.24zM4 23.008l10.016 4v-17.984l-10.016-4v17.984zM6.016 21.824v-2.016l5.984 2.4v2.016zM6.016 17.824v-2.016l5.984 2.4v2.016zM6.016 13.824v-2.016l5.984 2.4v2.016zM6.016 9.824v-2.016l5.984 2.4v2.016zM18.016 27.008l9.984-4v-17.984l-9.984 4v17.984zM20 24.224v-2.016l6.016-2.4v2.016zM20 20.224v-2.016l6.016-2.4v2.016zM20 16.224v-2.016l6.016-2.4v2.016zM20 12.224v-2.016l6.016-2.4v2.016z"></path>
  </symbol>
  <symbol fill="#000000" version="1.1" xmlns="http://www.w3.org/2000/svg" viewBox="0 0 32 32" id="camera">
    <title>camera</title>
    <path d="M0 28q0 0.832 0.576 1.44t1.44 0.576h28q0.8 0 1.408-0.576t0.576-1.44v-20q0-0.832-0.576-1.408t-1.408-0.576h-6.016v-2.016q0-0.832-0.576-1.408t-1.408-0.576h-12q-0.832 0-1.44 0.576t-0.576 1.408v2.016h-5.984q-0.832 0-1.44 0.576t-0.576 1.408v20zM4 26.016v-16h8v-4h8v4h8v16h-24zM6.016 13.024q0 0.384 0.288 0.704t0.704 0.288 0.704-0.288 0.288-0.704-0.288-0.704-0.704-0.32-0.704 0.32-0.288 0.704zM10.016 18.016q0 2.496 1.728 4.224t4.256 1.76 4.256-1.76 1.76-4.224-1.76-4.256-4.256-1.76-4.256 1.76-1.728 4.256zM12 18.016q0-1.664 1.184-2.848t2.816-1.152 2.816 1.152 1.184 2.848-1.184 2.816-2.816 1.184-2.816-1.184-1.184-2.816z"></path>
  </symbol>
  <symbol id="camera-stativ" version="1.1" xmlns="http://www.w3.org/2000/svg" xmlnsSvg="http://www.w3.org/2000/svg" viewBox="-15.33 0 74.666397 74.666397">
    <defs id="defs6">
      <clipPath clipPathUnits="userSpaceOnUse" id="clipPath152">
        <path d="M 0,64 H 64 V 0 H 0 Z" id="path150"></path>
      </clipPath>
    </defs>
    <g id="g144" transform="matrix(1.3333333,0,0,-1.3333333,-21.333333,79.999998)">
      <g id="g146">
        <g clip-path="url(#clipPath152)" id="g148">
          <g id="g154" transform="translate(45.8809,7.1982)">
            <path d="m 0,0 c -0.368,-0.189 -0.82,-0.059 -1.03,0.295 l -9.071,15.286 v 3.58 L 0.328,1.082 C 0.435,0.897 0.46,0.682 0.399,0.477 0.339,0.271 0.2,0.104 0.009,0.005 Z m -12.101,-0.422 c 0,-0.428 -0.349,-0.776 -0.78,-0.776 -0.431,0 -0.78,0.348 -0.78,0.776 v 15.454 3.085 h 0.18 0.6 0.78 V 15.032 Z M -24.73,0.295 c -0.211,-0.354 -0.664,-0.483 -1.041,-0.29 -0.191,0.099 -0.33,0.266 -0.39,0.472 -0.061,0.205 -0.034,0.419 0.072,0.605 l 10.428,18.065 v -3.566 z m 5.729,23.262 v 2.553 h 12.24 v -2.553 c 0,-0.42 -0.357,-0.776 -0.78,-0.776 h -1.813 c -0.005,0.019 -0.015,0.035 -0.02,0.054 -0.022,0.076 -0.055,0.146 -0.082,0.219 -0.046,0.126 -0.093,0.25 -0.152,0.368 -0.038,0.078 -0.084,0.149 -0.128,0.224 -0.063,0.105 -0.127,0.209 -0.2,0.307 -0.052,0.071 -0.108,0.139 -0.166,0.206 -0.078,0.091 -0.159,0.177 -0.245,0.26 -0.064,0.061 -0.129,0.12 -0.197,0.177 -0.093,0.077 -0.189,0.147 -0.29,0.214 -0.072,0.049 -0.144,0.098 -0.22,0.141 -0.108,0.063 -0.221,0.115 -0.337,0.167 -0.076,0.034 -0.149,0.07 -0.228,0.099 -0.131,0.049 -0.269,0.083 -0.406,0.116 -0.07,0.017 -0.136,0.04 -0.206,0.052 -0.212,0.038 -0.428,0.06 -0.65,0.06 -0.223,0 -0.439,-0.022 -0.651,-0.06 -0.072,-0.013 -0.139,-0.036 -0.209,-0.053 -0.138,-0.033 -0.275,-0.067 -0.405,-0.115 -0.08,-0.029 -0.153,-0.066 -0.23,-0.1 -0.115,-0.052 -0.228,-0.103 -0.337,-0.166 -0.076,-0.044 -0.147,-0.093 -0.221,-0.141 -0.099,-0.068 -0.197,-0.137 -0.289,-0.213 -0.068,-0.057 -0.132,-0.116 -0.197,-0.177 -0.086,-0.082 -0.167,-0.167 -0.244,-0.257 -0.059,-0.067 -0.113,-0.135 -0.166,-0.205 -0.072,-0.097 -0.136,-0.197 -0.197,-0.301 -0.045,-0.074 -0.089,-0.147 -0.128,-0.225 -0.057,-0.112 -0.103,-0.229 -0.147,-0.347 -0.028,-0.078 -0.06,-0.152 -0.084,-0.232 -0.008,-0.025 -0.019,-0.047 -0.026,-0.072 h -1.809 c -0.423,0 -0.78,0.356 -0.78,0.776 m -4.449,6.105 H -2.312 V 28.11 h -3.449 -14.24 -3.449 z m 8.919,-7.675 c 0.095,0.831 0.804,1.458 1.65,1.458 0.846,0 1.555,-0.627 1.657,-1.508 0.009,-0.051 0.013,-0.104 0.013,-0.156 0,-0.107 -0.011,-0.206 -0.046,-0.392 -0.003,-0.018 -0.012,-0.071 -0.051,-0.167 -0.017,-0.043 -0.047,-0.11 -0.058,-0.156 -0.032,-0.068 -0.071,-0.132 -0.125,-0.214 -0.067,-0.104 -0.151,-0.198 -0.276,-0.305 -0.17,-0.152 -0.35,-0.259 -0.574,-0.331 -0.139,-0.05 -0.247,-0.077 -0.263,-0.082 -0.03,0 -0.074,-0.004 -0.114,-0.008 l -0.257,0.003 -0.296,0.041 c -0.055,0.016 -0.114,0.033 -0.189,0.06 -0.186,0.058 -0.365,0.165 -0.548,0.328 -0.281,0.242 -0.459,0.581 -0.523,1.031 l -0.011,0.086 c -0.004,0.033 -0.009,0.059 -0.009,0.106 0,0.052 0.004,0.105 0.02,0.206 m -1.13,-20.375 c -0.056,-0.038 -0.111,-0.074 -0.158,-0.123 l -4.298,1.428 c -0.03,0.252 -0.153,0.484 -0.348,0.648 l 4.804,8.097 z m 10.21,1.305 -4.298,-1.428 c -0.1,0.104 -0.22,0.178 -0.352,0.23 v 9.943 l 4.884,-8.23 C -5.341,3.283 -5.428,3.109 -5.451,2.917 m -3.275,17.864 h 1.185 c 1.533,0 2.78,1.245 2.78,2.776 v 2.553 h 3.449 c 0.553,0 1,0.448 1,1 v 3.552 c 0,0.552 -0.447,1 -1,1 H -24.45 c -0.553,0 -1,-0.448 -1,-1 V 27.11 c 0,-0.552 0.447,-1 1,-1 h 3.449 v -2.553 c 0,-1.531 1.247,-2.776 2.78,-2.776 h 1.195 L -27.821,2.082 c -0.383,-0.665 -0.475,-1.435 -0.259,-2.17 0.217,-0.736 0.712,-1.334 1.404,-1.69 0.405,-0.209 0.84,-0.308 1.269,-0.308 0.953,0 1.879,0.49 2.396,1.36 l 1.546,2.605 c 0.017,-0.006 0.028,-0.02 0.045,-0.026 0.315,-0.104 0.634,-0.03 0.885,0.148 l 4.493,-1.491 c 0.066,-0.211 0.194,-0.39 0.381,-0.519 v -0.413 c 0,-1.531 1.247,-2.776 2.78,-2.776 1.533,0 2.78,1.245 2.78,2.776 v 0.302 c 0.289,0.115 0.487,0.35 0.575,0.63 l 4.493,1.491 c 0.219,-0.154 0.486,-0.217 0.762,-0.163 l 1.521,-2.564 c 0.514,-0.866 1.435,-1.356 2.392,-1.356 0.43,0 0.87,0.1 1.283,0.309 0.681,0.351 1.177,0.949 1.393,1.685 0.216,0.734 0.125,1.505 -0.257,2.169 z" id="path156"></path>
          </g>
          <g id="g158" transform="translate(46.041,42)">
            <path d="m 0,0 h -9.454 c 2.04,1.225 3.413,3.452 3.413,6 0,3.86 -3.141,7 -7,7 -3.859,0 -7,-3.14 -7,-7 0,-2.548 1.373,-4.775 3.413,-6 h -10.454 c -0.528,0 -0.959,0.435 -0.959,0.969 V 11 h 7 c 0.553,0 1,0.448 1,1 0,0.552 -0.447,1 -1,1 h -7 v 0.906 c 0,0.534 0.431,0.969 0.959,0.969 h 10.631 c 0.274,0 0.536,0.113 0.725,0.312 L -14.953,16 h 14.934 c 0.54,0 0.978,-0.445 0.978,-0.993 V 13 h -7 c -0.553,0 -1,-0.448 -1,-1 0,-0.552 0.447,-1 1,-1 h 7 V 0.969 C 0.959,0.435 0.528,0 0,0 m -18.041,6 c 0,2.757 2.243,5 5,5 2.757,0 5,-2.243 5,-5 0,-2.757 -2.243,-5 -5,-5 -2.757,0 -5,2.243 -5,5 m 18.022,12 h -15.364 c -0.274,0 -0.536,-0.113 -0.725,-0.312 l -0.773,-0.813 h -10.201 c -1.632,0 -2.959,-1.332 -2.959,-2.969 V 0.969 c 0,-1.637 1.327,-2.969 2.959,-2.969 H 0 c 1.632,0 2.959,1.332 2.959,2.969 V 15.007 C 2.959,16.658 1.623,18 -0.019,18" id="path160"></path>
          </g>
          <g id="g162" transform="translate(33,47)">
            <path d="M 0,0 C -0.552,0 -1,0.449 -1,1 -1,1.551 -0.552,2 0,2 0.552,2 1,1.551 1,1 1,0.449 0.552,0 0,0 m 0,4 c -1.654,0 -3,-1.346 -3,-3 0,-1.654 1.346,-3 3,-3 1.654,0 3,1.346 3,3 0,1.654 -1.346,3 -3,3" id="path164"></path>
          </g>
        </g>
      </g>
    </g>
  </symbol>
  <symbol fill="#000000" version="1.1" xmlns="http://www.w3.org/2000/svg" viewBox="0 0 32 32" id="drop">
    <title>droplet</title>
    <path d="M6.016 22.016q0 2.016 0.768 3.872t2.144 3.2 3.2 2.144 3.872 0.768q2.72 0 5.024-1.344t3.648-3.616 1.344-5.024q0-1.536-1.056-4.384t-2.496-5.792-2.944-5.664-2.496-4.448l-1.024-1.728q-0.416 0.672-1.088 1.824t-2.4 4.288-3.040 5.824-2.4 5.6-1.056 4.48zM10.016 22.016q0-0.32 0.096-0.896 0.384 2.080 2.048 3.488t3.84 1.408 3.84-1.408 2.048-3.488q0.128 0.608 0.128 0.896 0 2.496-1.76 4.224t-4.256 1.76-4.256-1.76-1.728-4.224z"></path>
  </symbol>
  <symbol id="signs" version="1.1" xmlns="http://www.w3.org/2000/svg" xmlnsSvg="http://www.w3.org/2000/svg" viewBox="0 0 74.665566 74.665566">
    <defs id="defs6">
      <clipPath clipPathUnits="userSpaceOnUse" id="clipPath42">
        <path d="M 0,64 H 64 V 0 H 0 Z" id="path40"></path>
      </clipPath>
    </defs>
    <g id="g34" transform="matrix(1.3333333,0,0,-1.3333333,-5.3342789,79.999031)">
      <g id="g36">
        <g clip-path="url(#clipPath42)" id="g38">
          <g id="g44" transform="translate(55.3975,14.9321)">
            <path d="m 0,0 -17.697,-4.301 -3.174,-0.771 -0.003,-0.001 -15.48,-3.762 c -1.826,-0.442 -3.668,0.68 -4.111,2.505 l -4.302,17.698 -0.77,3.174 -0.002,0.002 -3.762,15.481 c -0.441,1.824 0.68,3.667 2.506,4.111 l 17.697,4.301 3.174,0.771 0.003,0.001 15.481,3.762 c 0.268,0.065 0.537,0.096 0.801,0.096 1.535,0 2.931,-1.045 3.309,-2.602 l 4.302,-17.697 0.77,-3.174 c 0.001,-0.001 0.001,-0.002 0.002,-0.003 L 2.506,4.111 C 2.947,2.287 1.826,0.444 0,0 m -4.688,-5.043 h -7.586 l 10.308,2.504 0.596,0.144 c -0.343,-1.514 -1.701,-2.648 -3.318,-2.648 m -40.821,3.401 v 7.586 l 2.505,-10.308 0.144,-0.595 c -1.515,0.343 -2.649,1.7 -2.649,3.317 m 3.402,40.821 h 7.586 l -10.308,-2.504 -0.596,-0.145 c 0.343,1.515 1.701,2.649 3.318,2.649 M -1.286,35.777 V 28.191 L -3.791,38.5 -3.935,39.095 c 1.515,-0.343 2.649,-1.7 2.649,-3.318 M 4.45,4.581 c 0,0 0,10e-4 0,10e-4 L 0.714,19.959 v 15.818 c 0,2.9 -2.298,5.266 -5.168,5.39 -0.797,2.756 -3.64,4.43 -6.458,3.748 l -15.377,-3.736 h -15.818 c -2.9,0 -5.266,-2.298 -5.39,-5.168 -2.755,-0.797 -4.429,-3.638 -3.748,-6.457 l 3.736,-15.378 V -1.642 c 0,-2.902 2.303,-5.271 5.177,-5.39 0.678,-2.337 2.818,-3.9 5.176,-3.9 0.42,0 0.847,0.05 1.273,0.153 l 15.377,3.736 h 15.818 c 2.899,0 5.266,2.298 5.39,5.168 2.756,0.796 4.429,3.638 3.748,6.456" id="path46"></path>
          </g>
          <g id="g48" transform="translate(17.8979,18.9194)">
            <path d="M 0,0 7.895,19.981 24.079,5.851 c 0.416,-0.365 1.047,-0.321 1.411,0.095 0.363,0.416 0.32,1.048 -0.096,1.411 l -6.279,5.482 2.797,5.061 11.814,-9.729 c 0.186,-0.153 0.411,-0.228 0.635,-0.228 0.288,0 0.575,0.124 0.772,0.364 0.351,0.426 0.29,1.057 -0.136,1.408 L 22.254,20.209 c -0.23,0.188 -0.531,0.265 -0.823,0.21 -0.292,-0.055 -0.544,-0.238 -0.688,-0.498 l -3.169,-5.735 -9.43,8.233 C 7.899,22.633 7.567,22.715 7.25,22.638 6.934,22.561 6.675,22.336 6.556,22.034 L -1.86,0.735 c -0.203,-0.513 0.048,-1.094 0.562,-1.297 0.121,-0.048 0.245,-0.071 0.367,-0.071 0.399,0 0.776,0.24 0.931,0.633" id="path50"></path>
          </g>
          <g id="g52" transform="translate(43.1772,23.2866)">
            <path d="m 0,0 -25.666,-6.236 c -0.537,-0.131 -0.866,-0.671 -0.735,-1.208 0.111,-0.457 0.52,-0.764 0.97,-0.764 0.078,0 0.158,0.009 0.238,0.028 l 25.666,6.237 c 0.536,0.13 0.865,0.671 0.735,1.208 C 1.077,-0.199 0.538,0.134 0,0" id="path54"></path>
          </g>
          <g id="g56" transform="translate(52.8022,25.6255)">
            <path d="m 0,0 -6.417,-1.559 c -0.536,-0.13 -0.865,-0.671 -0.735,-1.208 0.111,-0.457 0.52,-0.764 0.971,-0.764 0.078,0 0.158,0.009 0.237,0.029 l 6.417,1.559 c 0.536,0.13 0.865,0.671 0.735,1.208 C 1.077,-0.199 0.538,0.132 0,0" id="path58"></path>
          </g>
          <g id="g60" transform="translate(33.3896,44.9058)">
            <path d="m 0,0 c 0.094,0.022 0.189,0.033 0.284,0.034 0.128,0 0.253,-0.025 0.371,-0.063 0.028,-0.009 0.053,-0.024 0.079,-0.035 0.081,-0.033 0.159,-0.075 0.23,-0.125 0.077,-0.053 0.14,-0.118 0.201,-0.185 0.036,-0.04 0.078,-0.073 0.109,-0.118 0.082,-0.121 0.148,-0.254 0.184,-0.401 0.038,-0.16 0.043,-0.32 0.018,-0.474 C 1.468,-1.411 1.441,-1.448 1.43,-1.491 1.399,-1.596 1.373,-1.703 1.316,-1.796 1.3,-1.823 1.271,-1.84 1.253,-1.865 1.182,-1.964 1.106,-2.062 1.006,-2.135 1.001,-2.139 0.995,-2.14 0.99,-2.143 0.868,-2.23 0.73,-2.299 0.576,-2.337 0.498,-2.356 0.422,-2.342 0.345,-2.346 0.262,-2.349 0.178,-2.368 0.098,-2.355 -0.365,-2.279 -0.763,-1.937 -0.88,-1.455 -1.036,-0.815 -0.636,-0.161 0,0 m 0.293,-4.371 c 0.249,0 0.5,0.029 0.752,0.09 0.001,0 0.002,0 0.003,0 1.713,0.417 2.769,2.148 2.353,3.858 -0.414,1.72 -2.153,2.782 -3.88,2.365 -1.707,-0.431 -2.758,-2.167 -2.345,-3.87 0.355,-1.46 1.671,-2.443 3.117,-2.443" id="path62"></path>
          </g>
        </g>
      </g>
    </g>
  </symbol>
</svg>
<svg class="icon">
  <use xlink:href="#store"></use>
</svg><svg class="icon">
  <use xlink:href="#sunset"></use>
</svg><svg class="icon">
  <use xlink:href="#wheel"></use>
</svg><svg class="icon">
  <use xlink:href="#book"></use>
</svg><svg class="icon">
  <use xlink:href="#camera"></use>
</svg><svg class="icon">
  <use xlink:href="#camera-stativ"></use>
</svg><svg class="icon">
  <use xlink:href="#drop"></use>
</svg><svg class="icon">
  <use xlink:href="#signs"></use>
</svg>